<mxfile host="app.diagrams.net" agent="Mozilla/5.0 (Windows NT 10.0; Win64; x64) AppleWebKit/537.36 (KHTML, like Gecko) Chrome/131.0.0.0 Safari/537.36" version="26.0.6">
  <diagram name="Page-1" id="fLU8VcNCep6opNJ1BtbN">
    <mxGraphModel dx="940" dy="552" grid="1" gridSize="10" guides="1" tooltips="1" connect="1" arrows="1" fold="1" page="1" pageScale="1" pageWidth="827" pageHeight="1169" math="0" shadow="0">
      <root>
        <mxCell id="0" />
        <mxCell id="1" parent="0" />
        <mxCell id="bMbit08Fi7w39qJ4cQUI-2" value="&lt;h1 style=&quot;margin-top: 0px;&quot;&gt;&lt;font style=&quot;font-size: 20px;&quot;&gt;Context PowerSupplyingpart::startSupplying()&lt;/font&gt;&lt;/h1&gt;&lt;p&gt;&lt;font style=&quot;font-size: 15px;&quot;&gt;&lt;b style=&quot;&quot;&gt;&lt;font face=&quot;Times New Roman&quot;&gt;pre:&lt;/font&gt; &lt;/b&gt;&lt;font face=&quot;Times New Roman&quot;&gt;&lt;i&gt;self.oclInState(Idle)&lt;/i&gt;&lt;/font&gt;&lt;/font&gt;&lt;/p&gt;&lt;p&gt;&lt;font style=&quot;font-size: 15px;&quot;&gt;&lt;b&gt;&lt;font face=&quot;Times New Roman&quot;&gt;post&lt;/font&gt;:&lt;/b&gt;&amp;nbsp;&lt;font face=&quot;Times New Roman&quot;&gt;&lt;i&gt;if SoC = 0&lt;/i&gt;&lt;/font&gt;&lt;/font&gt;&lt;/p&gt;&lt;p&gt;&lt;font face=&quot;Times New Roman&quot; style=&quot;font-size: 15px;&quot;&gt;&lt;i&gt;&lt;span style=&quot;white-space: pre;&quot;&gt;&#x9;&lt;/span&gt;&lt;span style=&quot;white-space: pre;&quot;&gt;&#x9;&lt;/span&gt;then&lt;br&gt;&lt;/i&gt;&lt;/font&gt;&lt;/p&gt;&lt;p&gt;&lt;font style=&quot;font-size: 15px;&quot;&gt;&lt;font face=&quot;Times New Roman&quot;&gt;&lt;i&gt;&lt;span style=&quot;white-space: pre;&quot;&gt;&#x9;&lt;/span&gt;&amp;nbsp; &lt;span style=&quot;white-space: pre;&quot;&gt;&#x9;&lt;/span&gt;&lt;span style=&quot;white-space: pre;&quot;&gt;&#x9;&lt;/span&gt;self.oclInState(Idle)&lt;/i&gt;&lt;/font&gt;&lt;br&gt;&lt;/font&gt;&lt;/p&gt;&lt;p&gt;&lt;i style=&quot;background-color: transparent; color: light-dark(rgb(0, 0, 0), rgb(255, 255, 255)); font-size: 15px; font-family: &amp;quot;Times New Roman&amp;quot;;&quot;&gt;&lt;span style=&quot;white-space: pre;&quot;&gt;&#x9;&lt;/span&gt;&amp;nbsp; else&lt;/i&gt;&lt;/p&gt;&lt;p&gt;&lt;font face=&quot;Times New Roman&quot; style=&quot;font-size: 15px;&quot;&gt;&lt;i&gt;&lt;span style=&quot;white-space: pre;&quot;&gt;&#x9;&lt;/span&gt;&lt;span style=&quot;white-space: pre;&quot;&gt;&#x9;&lt;/span&gt;then&lt;br&gt;&lt;/i&gt;&lt;/font&gt;&lt;/p&gt;&lt;p&gt;&lt;i&gt;&lt;font face=&quot;Times New Roman&quot; style=&quot;font-size: 15px;&quot;&gt;&lt;/font&gt;&lt;/i&gt;&lt;/p&gt;&lt;p&gt;&lt;font face=&quot;Times New Roman&quot; style=&quot;font-size: 15px;&quot;&gt;&lt;i&gt;&lt;span style=&quot;white-space: pre;&quot;&gt;&#x9;&lt;/span&gt;&amp;nbsp; &lt;span style=&quot;white-space: pre;&quot;&gt;&#x9;&lt;/span&gt;&lt;span style=&quot;white-space: pre;&quot;&gt;&#x9;&lt;/span&gt;self.oclInState(Supplying)&lt;/i&gt;&lt;/font&gt;&lt;/p&gt;&lt;p&gt;&lt;font style=&quot;font-size: 15px;&quot;&gt;&lt;br&gt;&lt;/font&gt;&lt;/p&gt;&lt;p&gt;&lt;font style=&quot;font-size: 15px;&quot;&gt;&lt;b&gt;&lt;font face=&quot;Times New Roman&quot;&gt;pre:&lt;/font&gt;&amp;nbsp;&lt;/b&gt;&lt;font face=&quot;Times New Roman&quot;&gt;&lt;i&gt;self.oclInState(Charging)&lt;/i&gt;&lt;/font&gt;&lt;/font&gt;&lt;/p&gt;&lt;p&gt;&lt;font style=&quot;font-size: 15px;&quot;&gt;&lt;font style=&quot;&quot;&gt;&lt;b&gt;&lt;font face=&quot;Times New Roman&quot;&gt;post:&lt;/font&gt;&lt;/b&gt;&amp;nbsp;&lt;/font&gt;&lt;span style=&quot;background-color: transparent; color: light-dark(rgb(0, 0, 0), rgb(255, 255, 255));&quot;&gt;&lt;font face=&quot;Times New Roman&quot;&gt;&lt;i&gt;self.oclInState(Supplying)&lt;/i&gt;&lt;/font&gt;&lt;/span&gt;&lt;/font&gt;&lt;/p&gt;" style="text;html=1;whiteSpace=wrap;overflow=hidden;rounded=0;" parent="1" vertex="1">
          <mxGeometry x="80" y="160" width="600" height="360" as="geometry" />
        </mxCell>
        <mxCell id="bMbit08Fi7w39qJ4cQUI-6" value="" style="group" parent="1" vertex="1" connectable="0">
          <mxGeometry x="40" y="40" width="450" height="35" as="geometry" />
        </mxCell>
        <mxCell id="bMbit08Fi7w39qJ4cQUI-4" value="&lt;b&gt;PowerSupplyingPart Specification Functional Model&lt;/b&gt;" style="text;fontSize=16;verticalAlign=middle;strokeColor=none;fillColor=none;whiteSpace=wrap;html=1;" parent="bMbit08Fi7w39qJ4cQUI-6" vertex="1">
          <mxGeometry width="450" height="30" as="geometry" />
        </mxCell>
        <mxCell id="bMbit08Fi7w39qJ4cQUI-5" value="" style="dashed=0;shape=line;strokeWidth=2;noLabel=1;strokeColor=#0C8CF2;opacity=50;" parent="bMbit08Fi7w39qJ4cQUI-6" vertex="1">
          <mxGeometry y="25" width="400" height="10" as="geometry" />
        </mxCell>
        <mxCell id="bMbit08Fi7w39qJ4cQUI-7" value="&lt;h1 style=&quot;margin-top: 0px;&quot;&gt;&lt;font style=&quot;font-size: 20px;&quot;&gt;Context PowerSupplyingpart::stopSupplying()&lt;/font&gt;&lt;/h1&gt;&lt;p&gt;&lt;b style=&quot;font-size: 15px; background-color: transparent; color: light-dark(rgb(0, 0, 0), rgb(255, 255, 255));&quot;&gt;&lt;font face=&quot;Times New Roman&quot;&gt;pre:&lt;/font&gt;&amp;nbsp;&lt;/b&gt;&lt;font style=&quot;font-size: 15px; background-color: transparent; color: light-dark(rgb(0, 0, 0), rgb(255, 255, 255));&quot; face=&quot;Times New Roman&quot;&gt;&lt;i&gt;self.oclInState(&lt;/i&gt;&lt;/font&gt;&lt;i style=&quot;font-size: 15px; background-color: transparent; color: light-dark(rgb(0, 0, 0), rgb(255, 255, 255)); font-family: &amp;quot;Times New Roman&amp;quot;;&quot;&gt;Supplying&lt;/i&gt;&lt;font style=&quot;font-size: 15px; background-color: transparent; color: light-dark(rgb(0, 0, 0), rgb(255, 255, 255));&quot; face=&quot;Times New Roman&quot;&gt;&lt;i&gt;)&lt;/i&gt;&lt;/font&gt;&lt;/p&gt;&lt;p&gt;&lt;font style=&quot;font-size: 15px;&quot;&gt;&lt;font style=&quot;&quot;&gt;&lt;b&gt;&lt;font face=&quot;Times New Roman&quot;&gt;post:&lt;/font&gt;&lt;/b&gt;&amp;nbsp;&lt;/font&gt;&lt;span style=&quot;background-color: transparent; color: light-dark(rgb(0, 0, 0), rgb(255, 255, 255));&quot;&gt;&lt;font face=&quot;Times New Roman&quot;&gt;&lt;i&gt;self.oclInState(Idle)&lt;/i&gt;&lt;/font&gt;&lt;/span&gt;&lt;/font&gt;&lt;/p&gt;" style="text;html=1;whiteSpace=wrap;overflow=hidden;rounded=0;" parent="1" vertex="1">
          <mxGeometry x="80" y="570" width="600" height="130" as="geometry" />
        </mxCell>
        <mxCell id="bMbit08Fi7w39qJ4cQUI-8" value="&lt;h1 style=&quot;margin-top: 0px;&quot;&gt;&lt;font style=&quot;font-size: 20px;&quot;&gt;Context PowerSupplyingpart::startCharging()&lt;/font&gt;&lt;/h1&gt;&lt;p&gt;&lt;font style=&quot;font-size: 15px;&quot;&gt;&lt;b style=&quot;&quot;&gt;&lt;font face=&quot;Times New Roman&quot;&gt;pre:&lt;/font&gt; &lt;/b&gt;&lt;font face=&quot;Times New Roman&quot;&gt;&lt;i&gt;self.oclInState(Idle)&lt;/i&gt;&lt;/font&gt;&lt;/font&gt;&lt;/p&gt;&lt;p&gt;&lt;font style=&quot;font-size: 15px;&quot;&gt;&lt;b&gt;&lt;font face=&quot;Times New Roman&quot;&gt;post&lt;/font&gt;:&lt;/b&gt;&amp;nbsp;&lt;font face=&quot;Times New Roman&quot;&gt;&lt;i&gt;if SoC = MaxCharge&lt;/i&gt;&lt;/font&gt;&lt;/font&gt;&lt;/p&gt;&lt;p&gt;&lt;font face=&quot;Times New Roman&quot; style=&quot;font-size: 15px;&quot;&gt;&lt;i&gt;&lt;span style=&quot;white-space: pre;&quot;&gt;&#x9;&lt;/span&gt;&lt;span style=&quot;white-space: pre;&quot;&gt;&#x9;&lt;/span&gt;then&lt;br&gt;&lt;/i&gt;&lt;/font&gt;&lt;/p&gt;&lt;p&gt;&lt;font style=&quot;font-size: 15px;&quot;&gt;&lt;font face=&quot;Times New Roman&quot;&gt;&lt;i&gt;&lt;span style=&quot;white-space: pre;&quot;&gt;&#x9;&lt;/span&gt;&amp;nbsp; &lt;span style=&quot;white-space: pre;&quot;&gt;&#x9;&lt;/span&gt;&lt;span style=&quot;white-space: pre;&quot;&gt;&#x9;&lt;/span&gt;self.oclInState(Idle)&lt;/i&gt;&lt;/font&gt;&lt;br&gt;&lt;/font&gt;&lt;/p&gt;&lt;p&gt;&lt;font style=&quot;background-color: transparent; color: light-dark(rgb(0, 0, 0), rgb(255, 255, 255)); font-size: 15px;&quot;&gt;&lt;span style=&quot;white-space: pre;&quot;&gt;&#x9;&lt;/span&gt;&amp;nbsp;&lt;/font&gt;&lt;i style=&quot;background-color: transparent; color: light-dark(rgb(0, 0, 0), rgb(255, 255, 255)); font-family: &amp;quot;Times New Roman&amp;quot;; font-size: 15px;&quot;&gt;else&lt;/i&gt;&lt;/p&gt;&lt;p&gt;&lt;font face=&quot;Times New Roman&quot; style=&quot;font-size: 15px;&quot;&gt;&lt;i&gt;&lt;span style=&quot;white-space: pre;&quot;&gt;&#x9;&lt;/span&gt;&lt;span style=&quot;white-space: pre;&quot;&gt;&#x9;&lt;/span&gt;then&lt;br&gt;&lt;/i&gt;&lt;/font&gt;&lt;/p&gt;&lt;p&gt;&lt;i&gt;&lt;font face=&quot;Times New Roman&quot; style=&quot;font-size: 15px;&quot;&gt;&lt;/font&gt;&lt;/i&gt;&lt;/p&gt;&lt;p&gt;&lt;font face=&quot;Times New Roman&quot; style=&quot;font-size: 15px;&quot;&gt;&lt;i&gt;&lt;span style=&quot;white-space: pre;&quot;&gt;&lt;span style=&quot;white-space: pre;&quot;&gt;&#x9;&lt;/span&gt;&#x9;&lt;/span&gt;&amp;nbsp; self.oclInState(Charging)&lt;/i&gt;&lt;/font&gt;&lt;/p&gt;&lt;p&gt;&lt;font style=&quot;font-size: 15px;&quot;&gt;&lt;br&gt;&lt;/font&gt;&lt;/p&gt;&lt;p&gt;&lt;font style=&quot;font-size: 15px;&quot;&gt;&lt;b&gt;&lt;font face=&quot;Times New Roman&quot;&gt;pre:&lt;/font&gt;&amp;nbsp;&lt;/b&gt;&lt;font face=&quot;Times New Roman&quot;&gt;&lt;i&gt;self.oclInState(&lt;/i&gt;&lt;/font&gt;&lt;i style=&quot;font-family: &amp;quot;Times New Roman&amp;quot;;&quot;&gt;Supplying&lt;/i&gt;&lt;font face=&quot;Times New Roman&quot;&gt;&lt;i&gt;)&lt;/i&gt;&lt;/font&gt;&lt;/font&gt;&lt;/p&gt;&lt;p&gt;&lt;font style=&quot;font-size: 15px;&quot;&gt;&lt;font style=&quot;&quot;&gt;&lt;b&gt;&lt;font face=&quot;Times New Roman&quot;&gt;post:&lt;/font&gt;&lt;/b&gt;&amp;nbsp;&lt;/font&gt;&lt;span style=&quot;background-color: transparent; color: light-dark(rgb(0, 0, 0), rgb(255, 255, 255));&quot;&gt;&lt;font face=&quot;Times New Roman&quot;&gt;&lt;i&gt;self.oclInState(&lt;/i&gt;&lt;/font&gt;&lt;/span&gt;&lt;i style=&quot;font-family: &amp;quot;Times New Roman&amp;quot;;&quot;&gt;Charging&lt;/i&gt;&lt;span style=&quot;background-color: transparent; color: light-dark(rgb(0, 0, 0), rgb(255, 255, 255));&quot;&gt;&lt;font face=&quot;Times New Roman&quot;&gt;&lt;i&gt;)&lt;/i&gt;&lt;/font&gt;&lt;/span&gt;&lt;/font&gt;&lt;/p&gt;" style="text;html=1;whiteSpace=wrap;overflow=hidden;rounded=0;" parent="1" vertex="1">
          <mxGeometry x="80" y="750" width="600" height="400" as="geometry" />
        </mxCell>
        <mxCell id="bMbit08Fi7w39qJ4cQUI-9" value="&lt;h1 style=&quot;margin-top: 0px;&quot;&gt;&lt;font style=&quot;font-size: 20px;&quot;&gt;Context PowerSupplyingpart::stopCharging()&lt;/font&gt;&lt;/h1&gt;&lt;p&gt;&lt;b style=&quot;font-size: 15px; background-color: transparent; color: light-dark(rgb(0, 0, 0), rgb(255, 255, 255));&quot;&gt;&lt;font face=&quot;Times New Roman&quot;&gt;pre:&lt;/font&gt;&amp;nbsp;&lt;/b&gt;&lt;font style=&quot;font-size: 15px; background-color: transparent; color: light-dark(rgb(0, 0, 0), rgb(255, 255, 255));&quot; face=&quot;Times New Roman&quot;&gt;&lt;i&gt;self.oclInState(&lt;/i&gt;&lt;/font&gt;&lt;i style=&quot;font-size: 15px; background-color: transparent; color: light-dark(rgb(0, 0, 0), rgb(255, 255, 255)); font-family: &amp;quot;Times New Roman&amp;quot;;&quot;&gt;Charging&lt;/i&gt;&lt;font style=&quot;font-size: 15px; background-color: transparent; color: light-dark(rgb(0, 0, 0), rgb(255, 255, 255));&quot; face=&quot;Times New Roman&quot;&gt;&lt;i&gt;)&lt;/i&gt;&lt;/font&gt;&lt;/p&gt;&lt;p&gt;&lt;font style=&quot;font-size: 15px;&quot;&gt;&lt;font style=&quot;&quot;&gt;&lt;b&gt;&lt;font face=&quot;Times New Roman&quot;&gt;post:&lt;/font&gt;&lt;/b&gt;&amp;nbsp;&lt;/font&gt;&lt;span style=&quot;background-color: transparent; color: light-dark(rgb(0, 0, 0), rgb(255, 255, 255));&quot;&gt;&lt;font face=&quot;Times New Roman&quot;&gt;&lt;i&gt;self.oclInState(Idle)&lt;/i&gt;&lt;/font&gt;&lt;/span&gt;&lt;/font&gt;&lt;/p&gt;" style="text;html=1;whiteSpace=wrap;overflow=hidden;rounded=0;" parent="1" vertex="1">
          <mxGeometry x="80" y="1250" width="600" height="130" as="geometry" />
        </mxCell>
      </root>
    </mxGraphModel>
  </diagram>
</mxfile>
